<?xml version="1.0" encoding="iso-8859-1"?>
<!-- Generator: Adobe Illustrator 25.2.3, SVG Export Plug-In . SVG Version: 6.00 Build 0)  -->
<svg version="1.1" id="Capa_1" xmlns="http://www.w3.org/2000/svg" xmlns:xlink="http://www.w3.org/1999/xlink" x="0px" y="0px"
     viewBox="0 0 32 40" style="enable-background:new 0 0 32 40;" xml:space="preserve">
    <g>
        <g>
            <!-- Contorno externo del círculo superior (negro) -->
            <path d="M16,31.2c-4.4,0-9.2-1.5-9.2-4.2s4.7-4.2,9.2-4.2c4.4,0,9.2,1.5,9.2,4.2C25.2,29.8,20.4,31.2,16,31.2z"
                  fill="none" stroke="black" stroke-width="1" />
            
            <!-- Interior del círculo superior (azul, llenado completo) -->
            <path d="M16,31.2c-4.4,0-9.2-1.5-9.2-4.2s4.7-4.2,9.2-4.2c4.4,0,9.2,1.5,9.2,4.2C25.2,29.8,20.4,31.2,16,31.2z"
                  fill="blue" />
        </g>
        <g>
            <!-- Contorno externo del círculo inferior (negro) -->
            <path d="M16,12.8c-3.3,0-6-2.7-6-6s2.7-6,6-6s6,2.7,6,6S19.3,12.8,16,12.8z"
                  fill="none" stroke="black" stroke-width="1" />
            
            <!-- Interior del círculo inferior (rojo, llenado completo) -->
            <path d="M16,12.8c-3.3,0-6-2.7-6-6s2.7-6,6-6s6,2.7,6,6S19.3,12.8,16,12.8z"
                  fill="blue" />
        </g>
        <g>
            <!-- Rectángulo vertical (sin cambios) -->
            <rect x="15.2" y="12" width="1.5" height="15" />
        </g>
    </g>
</svg>
