<?xml version="1.0" encoding="iso-8859-1"?>
<!-- Generator: Adobe Illustrator 25.2.3, SVG Export Plug-In . SVG Version: 6.00 Build 0)  -->
<svg version="1.1" id="Capa_1" xmlns:serif="http://www.serif.com/"
	 xmlns="http://www.w3.org/2000/svg" xmlns:xlink="http://www.w3.org/1999/xlink" x="0px" y="0px" viewBox="0 0 96 120"
	 style="enable-background:new 0 0 96 120;" xml:space="preserve">
<g transform="matrix(2.00001,0,0,2,0.00128,-359.999)">
	<path style="fill-rule:blue;clip-rule:evenodd;" d="M8.593,194.645c-0.331,0.946-0.175,2.114,0.432,3.355
		c0.958,1.955,3.042,4.124,5.82,5.802c2.783,1.681,5.628,2.485,7.729,2.375c1.424-0.075,2.524-0.571,3.131-1.44l2.411,1.422
		c4.712,3.874,7.41,8.615,7.646,9.039c2.205,5.616,2.158,16.987,2.158,16.987c-0.001,0.276,0.222,0.501,0.498,0.502
		c0.276,0.001,0.501-0.222,0.502-0.498c0,0,0.025-11.66-2.236-17.382c-0.008-0.019-0.016-0.038-0.026-0.055
		c0,0-2.703-4.977-7.614-9.121l0.481-0.851c4.956,4.231,7.767,9.238,7.987,9.637c2.424,5.4,2.408,17.77,2.408,17.77
		c0,0.276,0.224,0.5,0.5,0.5s0.5-0.224,0.5-0.5c0,0-0.016-12.681-2.498-18.187c-0.005-0.011-0.01-0.021-0.016-0.032
		c0,0-2.969-5.509-8.38-10.075l0.04-0.071c0.074-0.131,0.085-0.29,0.029-0.43c0,0-2.342-5.899-7.737-9.894
		c-1.542-1.143-4.744-2.565-7.09-3.301c-1.052-0.33-1.941-0.519-2.457-0.51c-0.06,0.002-0.119,0.014-0.175,0.036l-2.928,1.169
		c-0.106,0.042-0.194,0.119-0.25,0.218l-1.473,2.606c-0.134,0.237-0.054,0.538,0.181,0.677L8.593,194.645z M9.478,195.166
		c-0.169,0.689,0.015,1.515,0.446,2.394c0.891,1.821,2.851,3.823,5.438,5.386c2.581,1.559,5.211,2.335,7.159,2.232
		c1.03-0.054,1.86-0.346,2.319-0.951L9.478,195.166z M28.219,205.059l0.855-1.515c-0.469-1.069-2.751-5.866-7.311-9.243
		c-1.477-1.094-4.548-2.445-6.795-3.15c-0.86-0.27-1.592-0.449-2.052-0.463l-2.674,1.067l-1.145,2.026L28.219,205.059z"/>
</g>
</svg>
